<svg id="Layer_1" data-name="Layer 1" xmlns="http://www.w3.org/2000/svg" viewBox="0 0 827.96 146.37"><defs><style>.cls-1{fill:#f59a00;}.cls-2{fill:#134e9a;}</style></defs><path class="cls-1" d="M300.76,117.36a42.7,42.7,0,0,1-7.1,2.14,37,37,0,0,1-7.5.76,30.76,30.76,0,0,1-13-2.64,25.9,25.9,0,0,1-9.51-7.23,27,27,0,0,1-5.24-10.82,32.49,32.49,0,0,1-.22-13.32,39.16,39.16,0,0,1,4.94-13.34,42.49,42.49,0,0,1,21.06-18,38,38,0,0,1,14-2.64,31.15,31.15,0,0,1,13,2.64,25.85,25.85,0,0,1,9.49,7.25,26.39,26.39,0,0,1,5.23,10.8,32.25,32.25,0,0,1,.25,13.34,39.29,39.29,0,0,1-5.25,14.08,41.7,41.7,0,0,1-9.87,11.1l3.68,7.45L304.54,125ZM290.6,96.62l10.19-6.19L306,101.17a27.24,27.24,0,0,0,5-6.61,26.65,26.65,0,0,0,2.88-8.31,22.87,22.87,0,0,0-.08-9.14,16.08,16.08,0,0,0-9.51-11.6,19.8,19.8,0,0,0-8.21-1.62,24.24,24.24,0,0,0-8.79,1.62,26.68,26.68,0,0,0-7.71,4.55,26.23,26.23,0,0,0-5.88,7,27.08,27.08,0,0,0-3.24,9.14,22.73,22.73,0,0,0,0,9.22,16.67,16.67,0,0,0,3.41,7A16.89,16.89,0,0,0,280,107a21.33,21.33,0,0,0,12.11,1.25,25.37,25.37,0,0,0,3.73-1Z" transform="translate(-28 -9.07)"/><path class="cls-1" d="M360.75,113H360a19.34,19.34,0,0,1-6.58,5.33,18.51,18.51,0,0,1-8.42,1.94c-5.64,0-9.55-1.72-11.7-5.18s-2.71-8.11-1.62-13.83l4.78-27h11.91L343.88,99.8c-.57,3.24-.27,5.59.88,7.14a6.79,6.79,0,0,0,5.81,2.32,9.8,9.8,0,0,0,4.51-1.05,12.5,12.5,0,0,0,3.68-2.82,16.14,16.14,0,0,0,2.64-4.18A20.63,20.63,0,0,0,363,96.07l3.85-21.83h11.91l-7.85,44.56H359.78Z" transform="translate(-28 -9.07)"/><path class="cls-1" d="M381.83,118.8l7.86-44.56H401.6l-7.79,44.56Zm14.83-50.57a7,7,0,0,1-2.85-.58A6,6,0,0,1,391.63,66a6.1,6.1,0,0,1-1.19-2.42,6.61,6.61,0,0,1,0-3,8.65,8.65,0,0,1,1.11-3,9.77,9.77,0,0,1,2.06-2.42,9.46,9.46,0,0,1,2.76-1.62,8.11,8.11,0,0,1,3-.6A6.28,6.28,0,0,1,406,59a6.55,6.55,0,0,1-.15,1.65,9.56,9.56,0,0,1-9.08,7.63Z" transform="translate(-28 -9.07)"/><path class="cls-1" d="M448.51,107.44a32.33,32.33,0,0,1-9.72,9.24,25.74,25.74,0,0,1-13.69,3.58,22.59,22.59,0,0,1-9.19-1.76,17.39,17.39,0,0,1-6.58-5,18.7,18.7,0,0,1-3.6-7.51,23.43,23.43,0,0,1-.1-9.51A28.8,28.8,0,0,1,409.1,87a28.24,28.24,0,0,1,14.59-12.41,27,27,0,0,1,9.82-1.79,19.94,19.94,0,0,1,12.38,3.55,16.44,16.44,0,0,1,6.1,9.19l-11.71,4.55a9.2,9.2,0,0,0-3.13-4.7,9.53,9.53,0,0,0-5.77-1.62,12.63,12.63,0,0,0-4.62.91,14.35,14.35,0,0,0-4.13,2.56,15.22,15.22,0,0,0-3.24,4,17,17,0,0,0-1.85,5.28,14.2,14.2,0,0,0,0,5.28,9.38,9.38,0,0,0,1.8,4,9,9,0,0,0,3.24,2.55,10.28,10.28,0,0,0,4.3.91,13,13,0,0,0,6.61-1.62,15.24,15.24,0,0,0,5-4.87Z" transform="translate(-28 -9.07)"/><path class="cls-1" d="M465.27,53.68h11.91l-6.26,35.49h.55L489,74.24h14.73l-.13.73L484.18,91.06l13.2,27.09-.13.73h-14.1l-8.73-19.54-6.19,5.17-2.54,14.37H453.76Z" transform="translate(-28 -9.07)"/><path class="cls-2" d="M523.1,120.26a24.56,24.56,0,0,1-7.8-1.18,18.43,18.43,0,0,1-6.37-3.55,19,19,0,0,1-4.53-5.77,23.55,23.55,0,0,1-2.32-8l12.35-4.55a14.55,14.55,0,0,0,3,8.1,9.45,9.45,0,0,0,7.81,3.24,14,14,0,0,0,7.21-2,9.14,9.14,0,0,0,2.66-2.41,8,8,0,0,0,1.41-3.35,7.74,7.74,0,0,0,0-3.25,6.21,6.21,0,0,0-1.62-2.72,15.13,15.13,0,0,0-3.48-2.46A48.67,48.67,0,0,0,525.9,90l-3.74-1.46a25.41,25.41,0,0,1-4.86-2.44,18.31,18.31,0,0,1-4.2-3.75,14,14,0,0,1-2.92-11.81,19.35,19.35,0,0,1,2.76-7.14,22.62,22.62,0,0,1,5.3-5.82,25,25,0,0,1,7.34-3.92,26.76,26.76,0,0,1,8.83-1.41,22.9,22.9,0,0,1,8.28,1.33,16.34,16.34,0,0,1,5.49,3.35,14.56,14.56,0,0,1,3.24,4.5,17.78,17.78,0,0,1,1.46,4.66l-11.63,4.53a9.22,9.22,0,0,0-2.45-4.86,8.13,8.13,0,0,0-6.21-2.19,12.83,12.83,0,0,0-7,1.88,7.11,7.11,0,0,0-3.5,4.86,5.15,5.15,0,0,0,1.62,5,22.62,22.62,0,0,0,7.4,4L535,80.58a38.18,38.18,0,0,1,6.58,3.14A17.28,17.28,0,0,1,546.45,88,13.65,13.65,0,0,1,549,93.54a19.11,19.11,0,0,1,0,7.23,20.86,20.86,0,0,1-3.6,8.78,24.13,24.13,0,0,1-6.3,6,27.17,27.17,0,0,1-7.81,3.55A29.18,29.18,0,0,1,523.1,120.26Z" transform="translate(-28 -9.07)"/><path class="cls-2" d="M565.78,53.68h11.91L574.45,72l-2.16,8.1H573a19.32,19.32,0,0,1,6.48-5.23,18.11,18.11,0,0,1,8.38-2q8.64,0,11.88,5.09t1.62,13.92l-4.7,27H584.75l4.51-25.55a9.07,9.07,0,0,0-.93-7,6.54,6.54,0,0,0-5.67-2.41,10,10,0,0,0-4.55,1,12.5,12.5,0,0,0-3.74,2.87,16.17,16.17,0,0,0-2.74,4.23A20.56,20.56,0,0,0,570,97.07L566.2,118.8h-12Z" transform="translate(-28 -9.07)"/><path class="cls-2" d="M635.72,72.78A22.28,22.28,0,0,1,645,74.57a17.41,17.41,0,0,1,6.59,4.86,17.73,17.73,0,0,1,3.6,7.5,23.76,23.76,0,0,1,.08,9.54,28.52,28.52,0,0,1-3.45,9.55,29.11,29.11,0,0,1-6.24,7.52,28.67,28.67,0,0,1-8.33,4.86,27,27,0,0,1-9.82,1.76,22.49,22.49,0,0,1-9.19-1.76,17.78,17.78,0,0,1-6.59-4.86A18.13,18.13,0,0,1,608,106a24.18,24.18,0,0,1-.1-9.55,28.51,28.51,0,0,1,18-21.9A27,27,0,0,1,635.72,72.78Zm-6.49,36.48a13,13,0,0,0,4.57-.86,14.44,14.44,0,0,0,4.22-2.51,15.44,15.44,0,0,0,3.24-4,16.46,16.46,0,0,0,2.09-5.37,13.44,13.44,0,0,0,0-5.36,9.64,9.64,0,0,0-1.88-4,8.76,8.76,0,0,0-3.34-2.5,10.25,10.25,0,0,0-4.26-.87,12.45,12.45,0,0,0-4.6.87,14.28,14.28,0,0,0-4.17,2.5,14.92,14.92,0,0,0-3.24,4,16.51,16.51,0,0,0-1.9,5.36,13.86,13.86,0,0,0,0,5.37,9.38,9.38,0,0,0,1.9,4,8.84,8.84,0,0,0,3.24,2.51,10.53,10.53,0,0,0,4.18.86Z" transform="translate(-28 -9.07)"/><path class="cls-2" d="M665.94,74.24h11.18l-.94,5.37h.73a17.3,17.3,0,0,1,5.94-4.87,18.8,18.8,0,0,1,8.9-2,17.08,17.08,0,0,1,13.79,6.7,18.57,18.57,0,0,1,3.35,7.5,24.7,24.7,0,0,1,0,9.54,29.06,29.06,0,0,1-3.42,9.55,29.89,29.89,0,0,1-6,7.52,27.76,27.76,0,0,1-7.68,4.86,21.58,21.58,0,0,1-8.46,1.76,15,15,0,0,1-8.2-2,10.58,10.58,0,0,1-4.23-4.86h-.73l-.35,6.42-3.24,18.65H654.69Zm16.93,35a12.79,12.79,0,0,0,4.65-.91,14.71,14.71,0,0,0,4.23-2.54,16.29,16.29,0,0,0,3.34-4A14.85,14.85,0,0,0,697,96.52a12.37,12.37,0,0,0,0-5.28,9.93,9.93,0,0,0-1.92-4,9.51,9.51,0,0,0-3.33-2.56,10.27,10.27,0,0,0-4.34-.9,12.8,12.8,0,0,0-4.66.87,14.19,14.19,0,0,0-4.22,2.5,16.06,16.06,0,0,0-3.34,4,15.16,15.16,0,0,0-1.94,5.36,13.13,13.13,0,0,0,0,5.37,9.86,9.86,0,0,0,1.93,4,8.82,8.82,0,0,0,3.32,2.54A11,11,0,0,0,682.87,109.26Z" transform="translate(-28 -9.07)"/><path class="cls-2" d="M719.23,74.24h11.2l-1,5.37h.73a17.43,17.43,0,0,1,5.95-4.87,18.88,18.88,0,0,1,8.89-2,17.24,17.24,0,0,1,7.85,1.79,16.85,16.85,0,0,1,5.94,4.86,18.6,18.6,0,0,1,3.37,7.5,24.31,24.31,0,0,1,0,9.54,29.25,29.25,0,0,1-3.4,9.55,30.34,30.34,0,0,1-6,7.52,27.91,27.91,0,0,1-7.68,4.86,21.58,21.58,0,0,1-8.46,1.76,14.91,14.91,0,0,1-8.2-2,10.45,10.45,0,0,1-4.24-4.86h-.73l-.36,6.47-3.24,18.65H708Zm16.93,35a12.85,12.85,0,0,0,4.67-.91,14.92,14.92,0,0,0,4.21-2.54,16.37,16.37,0,0,0,3.36-4,15.26,15.26,0,0,0,1.89-5.28,13,13,0,0,0,0-5.28,9.66,9.66,0,0,0-1.94-4,9.31,9.31,0,0,0-3.24-2.56,10.33,10.33,0,0,0-4.34-.9,12.92,12.92,0,0,0-4.65.87,14.19,14.19,0,0,0-4.22,2.5,15.76,15.76,0,0,0-5.3,9.36,12.79,12.79,0,0,0,0,5.37,9.86,9.86,0,0,0,1.93,4,8.8,8.8,0,0,0,3.29,2.54A11,11,0,0,0,736.16,109.26Z" transform="translate(-28 -9.07)"/><path class="cls-2" d="M810.05,108.08a32.44,32.44,0,0,1-9.88,8.81,26.18,26.18,0,0,1-13.37,3.37,22.28,22.28,0,0,1-9.11-1.76,17.79,17.79,0,0,1-6.62-5,18,18,0,0,1-3.63-7.51,23.26,23.26,0,0,1-.1-9.51,27.54,27.54,0,0,1,3.34-9.15,29.62,29.62,0,0,1,6.14-7.55,29.2,29.2,0,0,1,8.23-5.14,24.6,24.6,0,0,1,9.72-1.91A21.7,21.7,0,0,1,804,74.55a15.06,15.06,0,0,1,6.14,4.86,17.08,17.08,0,0,1,3,7.41,27.8,27.8,0,0,1-.18,9.28,4.61,4.61,0,0,1-.2,1.09,8.14,8.14,0,0,0-.26,1,5.78,5.78,0,0,0-.27,1H778.59a10.82,10.82,0,0,0,.68,4.68,8.84,8.84,0,0,0,2.23,3.24,9.07,9.07,0,0,0,3.36,1.91,13.75,13.75,0,0,0,4,.59,13.21,13.21,0,0,0,7.1-1.87,17.65,17.65,0,0,0,5.06-4.68Zm-7.77-17.29a7.54,7.54,0,0,0-.31-2.63,7.76,7.76,0,0,0-1.44-2.74,8.58,8.58,0,0,0-2.9-2.09,11.47,11.47,0,0,0-4.56-.81,12.68,12.68,0,0,0-7.13,2.17,15,15,0,0,0-5.17,6.1Z" transform="translate(-28 -9.07)"/><path class="cls-2" d="M824.38,74.24h11.2l-1,6.19h.73a15,15,0,0,1,2.73-3,19.45,19.45,0,0,1,3.46-2.37,20.9,20.9,0,0,1,3.92-1.62,14.11,14.11,0,0,1,4-.61,13.6,13.6,0,0,1,4,.5A8.53,8.53,0,0,1,856,74.63l-5.2,10.61a10,10,0,0,0-2.25-.85,13.66,13.66,0,0,0-3.24-.33,11.38,11.38,0,0,0-4.64,1,12.94,12.94,0,0,0-3.89,2.7,16.23,16.23,0,0,0-2.9,4.07,18.09,18.09,0,0,0-1.62,5.07l-3.77,21.94H816.52Z" transform="translate(-28 -9.07)"/><polygon class="cls-1" points="163.56 85.33 144.64 117.06 158.39 140.12 158.96 140.44 206.33 61.04 140.29 61.04 118.35 24.27 165.49 24.27 165.49 0 75.59 0 126.5 85.33 163.56 85.33"/><polygon class="cls-2" points="105.31 122.08 119.46 146.37 147.73 146.37 133.25 122.08 119.26 122.08 105.31 122.08"/><polygon class="cls-2" points="90.82 122.08 64.7 122.08 42.76 85.33 111.08 85.33 102.23 70.5 102.28 70.5 96.63 61.04 0 61.04 50.91 146.37 104.97 146.37 90.82 122.08"/></svg>