<?xml version="1.0" standalone="no"?>
<!DOCTYPE svg PUBLIC "-//W3C//DTD SVG 20010904//EN"
 "http://www.w3.org/TR/2001/REC-SVG-20010904/DTD/svg10.dtd">
<svg version="1.0" xmlns="http://www.w3.org/2000/svg"
 width="981.000000pt" height="844.000000pt" viewBox="0 0 981.000000 844.000000"
 preserveAspectRatio="xMidYMid meet">
<metadata>
Created by potrace 1.15, written by Peter Selinger 2001-2017
</metadata>
<g transform="translate(0.000000,844.000000) scale(0.100000,-0.100000)"
fill="#f68202" stroke="none">
<path d="M132 8404 c-182 -91 -171 -347 18 -433 31 -14 139 -17 940 -21 876
-5 906 -6 945 -25 57 -28 119 -94 138 -146 17 -44 1310 -5800 1305 -5803 -2
-1 -34 -15 -73 -31 -351 -142 -588 -465 -625 -850 -36 -380 152 -745 486 -948
77 -46 162 -81 265 -109 111 -30 366 -33 469 -5 191 53 324 125 454 247 198
186 300 410 313 680 8 184 -16 300 -112 533 -7 16 57 17 1264 17 746 0 1271
-4 1271 -9 0 -5 -15 -49 -34 -97 -114 -296 -108 -563 18 -829 123 -259 342
-443 633 -532 81 -24 102 -27 263 -27 205 0 273 14 429 90 123 59 199 113 291
210 124 130 206 275 251 444 20 72 23 110 23 245 1 169 -14 255 -66 380 -102
245 -314 453 -558 549 -169 66 40 60 -2329 66 l-2144 5 -138 605 c-76 333
-139 613 -139 623 0 16 108 17 2128 17 2362 0 2177 -5 2315 67 76 40 158 114
199 179 32 50 1424 3235 1451 3319 55 172 -28 369 -190 451 l-58 29 -3380 5
-3380 5 -67 300 c-74 328 -89 373 -158 479 -93 142 -242 254 -415 314 l-80 27
-935 3 -935 3 -53 -27z m9135 -1587 c-3 -7 -308 -707 -678 -1555 l-673 -1542
-2170 2 -2169 3 -328 1465 c-181 806 -337 1504 -347 1553 l-20 87 3195 0
c2603 0 3194 -2 3190 -13z m-1032 -5318 c122 -37 241 -138 300 -254 81 -161
74 -353 -20 -510 -45 -74 -84 -116 -154 -162 -170 -113 -397 -115 -567 -5
-337 220 -317 711 37 897 125 66 264 77 404 34z m-4320 6 c118 -31 227 -112
297 -219 164 -254 68 -610 -201 -741 -81 -41 -145 -55 -242 -55 -202 0 -375
110 -465 295 -93 196 -58 415 93 576 63 66 146 119 227 145 58 18 220 17 291
-1z"/>
</g>
</svg>
